<?xml version="1.0" encoding="utf-8"?>
<!-- Generator: Adobe Illustrator 19.0.0, SVG Export Plug-In . SVG Version: 6.00 Build 0)  -->
<svg version="1.1" id="Livello_1" xmlns="http://www.w3.org/2000/svg" xmlns:xlink="http://www.w3.org/1999/xlink" x="0px" y="0px"
	 viewBox="119 -29.4 850.4 850.4" style="enable-background:new 119 -29.4 850.4 850.4;" xml:space="preserve">
<style type="text/css">
	.st0{fill:#8BC34A;}
	.st1{fill:#C5E1A5;}
	.st2{fill:#FFFFFF;stroke:#EEEEEE;stroke-width:7;stroke-miterlimit:10;}
	.st3{fill:none;stroke:#37474F;stroke-width:7;stroke-miterlimit:10;}
	.st4{fill:#FFC107;}
	.st5{fill:#455A64;}
	.st6{fill:#F48FB1;}
	.st7{fill:#FFF3E0;}
	.st8{fill:#FFCA28;}
</style>
<g>
	<path class="st0" d="M835.6,79.2L969.4,213V56.6c0-47.5-38.5-86-86-86H205c-47.5,0-86,38.5-86,86V735c0,47.5,38.5,86,86,86h162.4
		L251.1,704.7L835.6,79.2z"/>
	<path class="st1" d="M969.4,735V213L835.6,79.2L251.1,704.7L367.4,821h516C930.9,821,969.4,782.5,969.4,735z"/>
</g>
<path class="st2" d="M814.7,71.8h-541c-13.5,0-24.5,11-24.5,24.5v35.5v563.5c0,13.5,11,24.5,24.5,24.5h541c13.5,0,24.5-11,24.5-24.5
	V131.8V96.3C839.2,82.8,828.2,71.8,814.7,71.8z"/>
<g>
	<g>
		<line class="st3" x1="315.5" y1="135.4" x2="775.5" y2="135.4"/>
		<line class="st3" x1="314.5" y1="378.4" x2="774.5" y2="378.4"/>
		<line class="st3" x1="314.5" y1="317.6" x2="774.5" y2="317.6"/>
		<line class="st3" x1="314.5" y1="256.9" x2="774.5" y2="256.9"/>
		<line class="st3" x1="314.5" y1="196.1" x2="774.5" y2="196.1"/>
	</g>
	<g>
		<path class="st4" d="M419.5,530.7v100.4c0,13.8,11.3,25.1,25.1,25.1h200.8c13.8,0,25.1-11.3,25.1-25.1V530.7h-37.6v12.5h-50.2
			v-12.5h-75.3v12.5h-50.2v-12.5H419.5z"/>
		<path class="st5" d="M507.3,442.9v12.5h-62.7c-13.9,0-25.1,11.2-25.1,25.1v25.1h251v-25.1c0-13.9-11.2-25.1-25.1-25.1h-62.7v-12.5
			H507.3z"/>
	</g>
</g>
<g>
	<path class="st6" d="M759.3,107.2c-2.9,0-5.8,1.1-8.1,3.3L731.7,130l45.6,45.6l19.5-19.5c4.5-4.5,4.5-11.7,0-16.1l-29.5-29.5
		C765.1,108.3,762.2,107.2,759.3,107.2z M629,324 M583.4,278.4 M629,324 M583.4,278.4"/>
	<polyline class="st7" points="583.4,278.4 583.4,324 629,324 	"/>
	<polyline class="st8" points="629,324 760.3,192.8 714.6,147.1 583.4,278.4 	"/>
</g>
</svg>
